<?xml version="1.0" encoding="UTF-8"?>
<svg xmlns="http://www.w3.org/2000/svg" xmlns:xlink="http://www.w3.org/1999/xlink" width="48px" height="48px" viewBox="0 0 48 48" version="1.1">
<g id="surface1">
<path style=" stroke:none;fill-rule:evenodd;fill:rgb(29.411765%,52.54902%,56.862745%);fill-opacity:1;" d="M 35.445312 39.953125 C 34.257812 40.75 32.980469 41.402344 31.746094 42.125 C 30.058594 43.113281 28.347656 44.066406 26.652344 45.039062 C 25.078125 45.941406 23.429688 46.023438 21.851562 45.199219 C 19.734375 44.101562 17.691406 42.859375 15.621094 41.675781 C 12.875 40.105469 10.125 38.542969 7.386719 36.957031 C 5.621094 35.933594 4.597656 34.453125 4.605469 32.34375 C 4.617188 28.726562 4.609375 25.113281 4.609375 21.5 C 4.609375 21.308594 4.621094 21.117188 4.625 20.925781 C 4.78125 20.796875 4.933594 20.875 5.066406 20.957031 C 6.5 21.828125 7.929688 22.703125 9.335938 23.609375 C 9.445312 23.679688 9.539062 23.765625 9.609375 23.875 C 9.71875 24.113281 9.921875 24.28125 10.101562 24.460938 C 12.199219 26.566406 14.308594 28.660156 16.398438 30.773438 C 16.707031 31.082031 17.023438 31.226562 17.457031 31.207031 C 18.03125 31.179688 18.609375 31.210938 19.183594 31.195312 C 19.652344 31.183594 19.96875 31.375 20.1875 31.785156 C 20.460938 32.292969 20.769531 32.78125 21.039062 33.289062 C 21.222656 33.640625 21.492188 33.824219 21.875 33.929688 C 24.28125 34.585938 26.691406 35.210938 29.09375 35.867188 C 29.28125 35.917969 29.472656 35.953125 29.621094 36.085938 C 30.101562 36.601562 30.773438 36.820312 31.347656 37.191406 C 32.496094 37.945312 33.675781 38.652344 34.847656 39.375 C 35.085938 39.519531 35.382812 39.625 35.445312 39.953125 Z M 35.445312 39.953125 "/>
<path style=" stroke:none;fill-rule:evenodd;fill:rgb(47.843137%,67.843137%,71.372549%);fill-opacity:1;" d="M 13.277344 7.84375 C 15.476562 6.578125 17.671875 5.308594 19.875 4.042969 C 20.558594 3.652344 21.230469 3.21875 21.953125 2.902344 C 23.390625 2.269531 24.882812 2.226562 26.285156 2.953125 C 27.972656 3.832031 29.601562 4.816406 31.253906 5.761719 C 34.417969 7.574219 37.574219 9.398438 40.738281 11.210938 C 42.605469 12.277344 43.589844 13.859375 43.585938 16.03125 C 43.574219 19.550781 43.574219 23.070312 43.566406 26.589844 C 43.339844 26.703125 43.167969 26.558594 42.996094 26.453125 C 40.015625 24.542969 37 22.691406 33.992188 20.832031 C 33.773438 20.695312 33.59375 20.515625 33.386719 20.367188 C 33.125 19.933594 33.0625 19.433594 32.929688 18.960938 C 32.335938 16.773438 31.757812 14.582031 31.167969 12.394531 C 31.019531 11.835938 30.992188 11.824219 30.4375 11.972656 C 28.15625 12.582031 25.875 13.191406 23.59375 13.808594 C 23.332031 13.878906 23.074219 13.984375 22.796875 13.917969 C 20.648438 12.574219 18.484375 11.257812 16.335938 9.914062 C 15.457031 9.363281 14.570312 8.828125 13.695312 8.273438 C 13.523438 8.164062 13.316406 8.082031 13.277344 7.84375 Z M 13.277344 7.84375 "/>
<path style=" stroke:none;fill-rule:evenodd;fill:rgb(40.392157%,63.921569%,68.235294%);fill-opacity:1;" d="M 33.542969 20.347656 C 35.265625 21.410156 36.992188 22.464844 38.710938 23.535156 C 40.332031 24.546875 41.949219 25.570312 43.566406 26.589844 C 43.570312 28.621094 43.640625 30.652344 43.558594 32.683594 C 43.480469 34.535156 42.472656 35.921875 40.910156 36.859375 C 39.171875 37.90625 37.386719 38.878906 35.617188 39.882812 C 35.566406 39.914062 35.503906 39.929688 35.445312 39.953125 C 33.574219 38.800781 31.699219 37.648438 29.828125 36.492188 C 29.722656 36.425781 29.601562 36.363281 29.574219 36.222656 C 29.792969 35.96875 30.046875 36.121094 30.277344 36.179688 C 31.011719 36.367188 31.003906 36.375 31.210938 35.632812 C 31.980469 32.847656 32.695312 30.046875 33.46875 27.261719 C 33.574219 26.882812 33.550781 26.558594 33.335938 26.21875 C 33.027344 25.734375 32.761719 25.222656 32.460938 24.734375 C 32.199219 24.308594 32.195312 23.910156 32.457031 23.476562 C 32.765625 22.972656 33.046875 22.449219 33.363281 21.949219 C 33.550781 21.65625 33.589844 21.375 33.488281 21.042969 C 33.421875 20.820312 33.273438 20.558594 33.542969 20.347656 Z M 33.542969 20.347656 "/>
<path style=" stroke:none;fill-rule:evenodd;fill:rgb(40.392157%,63.921569%,68.235294%);fill-opacity:1;" d="M 13.277344 7.84375 C 14.457031 8.472656 15.5625 9.226562 16.703125 9.921875 C 18.546875 11.054688 20.390625 12.1875 22.226562 13.328125 C 22.425781 13.449219 22.675781 13.519531 22.753906 13.78125 C 22.675781 14.105469 22.382812 14.121094 22.148438 14.164062 C 21.558594 14.277344 21.140625 14.558594 20.894531 15.136719 C 20.699219 15.589844 20.402344 15.996094 20.164062 16.433594 C 19.953125 16.828125 19.640625 17.003906 19.191406 16.996094 C 18.632812 16.980469 18.070312 17.019531 17.511719 16.984375 C 17.019531 16.953125 16.675781 17.132812 16.332031 17.476562 C 14.320312 19.515625 12.292969 21.535156 10.261719 23.554688 C 10.070312 23.746094 9.902344 24.027344 9.546875 23.941406 C 8.03125 23.003906 6.515625 22.0625 5 21.125 C 4.878906 21.050781 4.75 20.992188 4.625 20.925781 C 4.621094 19.003906 4.539062 17.082031 4.632812 15.167969 C 4.714844 13.574219 5.605469 12.320312 6.925781 11.5 C 9.003906 10.214844 11.15625 9.054688 13.277344 7.84375 Z M 13.277344 7.84375 "/>
<path style=" stroke:none;fill-rule:evenodd;fill:rgb(8.627451%,18.039216%,20.392157%);fill-opacity:1;" d="M 9.546875 23.941406 C 10.738281 22.765625 11.933594 21.59375 13.121094 20.410156 C 14.242188 19.296875 15.363281 18.183594 16.472656 17.058594 C 16.65625 16.871094 16.84375 16.792969 17.101562 16.796875 C 17.851562 16.8125 18.605469 16.796875 19.355469 16.816406 C 19.628906 16.824219 19.789062 16.734375 19.917969 16.492188 C 20.238281 15.886719 20.609375 15.304688 20.917969 14.695312 C 21.085938 14.367188 21.300781 14.179688 21.65625 14.097656 C 22.027344 14.015625 22.410156 13.964844 22.753906 13.78125 C 24.121094 13.429688 25.488281 13.082031 26.855469 12.722656 C 28.148438 12.386719 29.441406 12.058594 30.722656 11.683594 C 31.113281 11.566406 31.210938 11.6875 31.296875 12.023438 C 32 14.679688 32.710938 17.335938 33.421875 19.988281 C 33.453125 20.109375 33.503906 20.230469 33.542969 20.351562 C 33.933594 21.25 33.714844 22.058594 33.109375 22.761719 C 32.324219 23.667969 32.3125 24.535156 33.113281 25.4375 C 33.816406 26.230469 33.769531 27.082031 33.472656 28.082031 C 32.683594 30.738281 32.015625 33.429688 31.3125 36.109375 C 31.214844 36.476562 31.113281 36.675781 30.683594 36.503906 C 30.332031 36.363281 29.945312 36.3125 29.574219 36.222656 C 28.285156 35.867188 27 35.507812 25.710938 35.15625 C 24.324219 34.78125 22.941406 34.410156 21.550781 34.050781 C 21.300781 33.988281 21.132812 33.875 21.007812 33.640625 C 20.691406 33.050781 20.332031 32.480469 20.027344 31.886719 C 19.835938 31.523438 19.613281 31.34375 19.171875 31.371094 C 18.503906 31.417969 17.832031 31.375 17.160156 31.394531 C 16.867188 31.402344 16.652344 31.316406 16.441406 31.105469 C 14.210938 28.859375 11.972656 26.625 9.734375 24.386719 C 9.613281 24.265625 9.449219 24.15625 9.546875 23.941406 Z M 9.546875 23.941406 "/>
<path style=" stroke:none;fill-rule:evenodd;fill:rgb(92.54902%,95.294118%,96.078431%);fill-opacity:1;" d="M 29.6875 16.648438 C 30.367188 19.089844 31.019531 21.453125 31.683594 23.808594 C 31.738281 24 31.738281 24.15625 31.683594 24.355469 C 31.03125 26.640625 30.394531 28.933594 29.757812 31.222656 C 29.738281 31.296875 29.734375 31.375 29.710938 31.550781 C 29.355469 30.964844 29.035156 30.445312 28.730469 29.917969 C 27.683594 28.101562 26.644531 26.28125 25.589844 24.46875 C 25.433594 24.207031 25.421875 24.011719 25.582031 23.738281 C 26.945312 21.410156 28.289062 19.070312 29.6875 16.648438 Z M 29.6875 16.648438 "/>
<path style=" stroke:none;fill-rule:evenodd;fill:rgb(92.156863%,95.294118%,96.078431%);fill-opacity:1;" d="M 14.601562 22.832031 C 16.363281 21.03125 18.070312 19.292969 19.769531 17.539062 C 20 17.304688 20.277344 17.242188 20.566406 17.167969 C 22.683594 16.625 24.800781 16.082031 26.917969 15.539062 C 27.050781 15.507812 27.195312 15.390625 27.300781 15.5625 C 27.386719 15.695312 27.25 15.800781 27.191406 15.898438 C 25.917969 18.117188 24.632812 20.332031 23.363281 22.550781 C 23.242188 22.761719 23.121094 22.839844 22.882812 22.839844 C 20.148438 22.832031 17.417969 22.832031 14.601562 22.832031 Z M 14.601562 22.832031 "/>
<path style=" stroke:none;fill-rule:evenodd;fill:rgb(92.156863%,95.294118%,96.078431%);fill-opacity:1;" d="M 14.597656 25.359375 C 17.441406 25.359375 20.1875 25.367188 22.933594 25.351562 C 23.242188 25.347656 23.300781 25.558594 23.40625 25.738281 C 24.460938 27.546875 25.511719 29.363281 26.558594 31.175781 C 26.84375 31.664062 27.109375 32.160156 27.453125 32.777344 C 26.585938 32.566406 25.855469 32.394531 25.128906 32.210938 C 23.550781 31.804688 21.972656 31.390625 20.394531 30.988281 C 20.125 30.917969 19.910156 30.796875 19.710938 30.59375 C 18.082031 28.925781 16.445312 27.265625 14.8125 25.605469 C 14.761719 25.550781 14.710938 25.488281 14.597656 25.359375 Z M 14.597656 25.359375 "/>
</g>
</svg>
